<?xml version="1.0" encoding="UTF-8"?>
<svg width="512" height="512" viewBox="0 0 512 512" fill="none" xmlns="http://www.w3.org/2000/svg">
    <rect width="512" height="512" rx="64" fill="#232F3E"/>
    <path d="M256 96C176.5 96 112 160.5 112 240C112 319.5 176.5 384 256 384C335.5 384 400 319.5 400 240C400 160.5 335.5 96 256 96ZM256 352C194.1 352 144 301.9 144 240C144 178.1 194.1 128 256 128C317.9 128 368 178.1 368 240C368 301.9 317.9 352 256 352Z" fill="#FF9900"/>
    <path d="M256 176C220.7 176 192 204.7 192 240C192 275.3 220.7 304 256 304C291.3 304 320 275.3 320 240C320 204.7 291.3 176 256 176ZM256 272C238.3 272 224 257.7 224 240C224 222.3 238.3 208 256 208C273.7 208 288 222.3 288 240C288 257.7 273.7 272 256 272Z" fill="#FF9900"/>
    <path d="M256 416C362.9 416 448 330.9 448 224C448 117.1 362.9 32 256 32C149.1 32 64 117.1 64 224C64 330.9 149.1 416 256 416ZM256 64C345.4 64 416 134.6 416 224C416 313.4 345.4 384 256 384C166.6 384 96 313.4 96 224C96 134.6 166.6 64 256 64Z" fill="#FF9900"/>
</svg>
