<?xml version="1.0" encoding="UTF-8"?>
<svg width="512" height="512" viewBox="0 0 512 512" fill="none" xmlns="http://www.w3.org/2000/svg">
    <rect width="512" height="512" rx="100" fill="#2271B1"/>
    <path d="M256 128C176.5 128 112 192.5 112 272C112 351.5 176.5 416 256 416C335.5 416 400 351.5 400 272C400 192.5 335.5 128 256 128ZM256 384C194.1 384 144 333.9 144 272C144 210.1 194.1 160 256 160C317.9 160 368 210.1 368 272C368 333.9 317.9 384 256 384Z" fill="white"/>
    <path d="M256 208C220.7 208 192 236.7 192 272C192 307.3 220.7 336 256 336C291.3 336 320 307.3 320 272C320 236.7 291.3 208 256 208ZM256 304C238.3 304 224 289.7 224 272C224 254.3 238.3 240 256 240C273.7 240 288 254.3 288 272C288 289.7 273.7 304 256 304Z" fill="white"/>
    <path d="M256 96C149.1 96 64 181.1 64 288C64 394.9 149.1 480 256 480C362.9 480 448 394.9 448 288C448 181.1 362.9 96 256 96ZM256 448C166.6 448 96 377.4 96 288C96 198.6 166.6 128 256 128C345.4 128 416 198.6 416 288C416 377.4 345.4 448 256 448Z" fill="white"/>
</svg>
